<?xml version="1.0" encoding="utf-8"?>
<!-- Generator: Adobe Illustrator 16.0.0, SVG Export Plug-In . SVG Version: 6.00 Build 0)  -->
<!DOCTYPE svg PUBLIC "-//W3C//DTD SVG 1.1//EN" "http://www.w3.org/Graphics/SVG/1.1/DTD/svg11.dtd">
<svg version="1.1" id="Layer_1" xmlns="http://www.w3.org/2000/svg" xmlns:xlink="http://www.w3.org/1999/xlink" x="0px" y="0px"
	 width="800px" height="250px" viewBox="-281.317 -87.838 800 250" enable-background="new -281.317 -87.838 800 250"
	 xml:space="preserve">
<g id="reference" display="none">
</g>
<g id="Guides">
</g>
<g id="Shapes">
</g>
<g id="Object">
	<g id="Object_Comp">
	</g>
	<g>
		<path fill="#F2F2F2" d="M481,34.322c0,0,1.906-1.295,9.531-15.705c30.289-57.229-85.256-83-85.256-83
			C299.263-92.99,102.379-87.396,102.379-87.396c-388.72,5.033-381.983,62.279-383.103,91.445
			c-1.124,29.164,37.579,51.607,37.579,51.607c-4.489,3.365-10.655,22.436-8.973,35.896c1.683,13.463,14.021,42.627,85.259,56.09
			c32.945,6.23,157.426,14.986,284.948,14.645c0,0-56.958-0.424,172.759,0.014c229.715,0.434,227.172-76.934,227.172-76.934
			C520.261,54.511,481,34.322,481,34.322z M434.355,135.757c-10.188,4.348-21.092,8.389-31.846,11.096
			c-18.576,4.674-38.166,4.463-57.182,5.352c-41.043,1.918-81.857,5.316-122.959,3.568c-31.65-1.344-63.379-0.256-95.049-1.184
			c-34.63-1.018-69.265-0.723-103.892-1.656c-18.877-0.506-37.824-0.217-56.688-0.967c-0.636-0.025-1.269-0.078-1.901-0.131
			c-40.414-2.209-82.252-2.938-122.175-10.445c-29.917-5.619-61.633-23.299-59.443-58.252c0,0,1.121-17.945,10.097-26.924
			c0,0-20.759-15.717-29.172-31.424c-8.613-16.078-9.343-37.549,2.53-52.223c10.202-12.613,26.817-17.671,41.727-22.109
			c29.636-8.814,60.465-14.226,91.118-18.048c36.597-4.567,73.357-7.177,110.183-8.915c27.504-1.3,55.051-1.791,82.58-1.912
			c84.697-0.371,118.359,0.002,190.152,5.609c71.799,5.607,109.938,16.282,109.938,16.282s94.234,23.758,53.848,90.405
			c0,0,34.779,15.604,35.338,46.459C482.048,107.308,457.416,125.921,434.355,135.757z"/>
		<path fill="#FFFFFF" d="M446.22,33.88c40.387-66.65-53.848-90.405-53.848-90.405s-38.139-10.675-109.938-16.282
			c-71.793-5.607-105.455-5.98-190.152-5.609c-27.529,0.121-55.076,0.615-82.58,1.912c-36.825,1.738-73.586,4.348-110.183,8.915
			c-30.652,3.825-61.484,9.233-91.118,18.048c-14.913,4.438-31.524,9.496-41.727,22.109c-11.873,14.67-11.142,36.143-2.53,52.223
			c8.413,15.707,29.172,31.424,29.172,31.424c-8.976,8.979-10.097,26.924-10.097,26.924c-2.188,34.953,29.527,52.633,59.443,58.252
			c39.919,7.508,81.761,8.234,122.175,10.445c0.633,0.053,1.266,0.105,1.901,0.131c18.86,0.75,37.808,0.461,56.688,0.967
			c34.627,0.934,69.262,0.639,103.892,1.656c31.67,0.924,63.398-0.164,95.049,1.184c41.102,1.756,81.916-1.646,122.959-3.568
			c19.016-0.889,38.605-0.678,57.182-5.352c10.754-2.705,21.658-6.748,31.846-11.096c23.061-9.836,47.693-28.449,47.203-55.426
			C481,49.484,446.22,33.88,446.22,33.88z"/>
	</g>
</g>
</svg>
