<?xml version="1.0" encoding="utf-8"?>
<!-- Generator: Adobe Illustrator 16.0.0, SVG Export Plug-In . SVG Version: 6.00 Build 0)  -->
<!DOCTYPE svg PUBLIC "-//W3C//DTD SVG 1.1//EN" "http://www.w3.org/Graphics/SVG/1.1/DTD/svg11.dtd">
<svg version="1.1" id="Layer_1" xmlns="http://www.w3.org/2000/svg" xmlns:xlink="http://www.w3.org/1999/xlink" x="0px" y="0px"
	 width="798.861px" height="250.141px" viewBox="0 0 798.861 250.141" enable-background="new 0 0 798.861 250.141"
	 xml:space="preserve">
<g id="Object_Comp">
</g>
<g>
	<path fill="none" d="M290.45,11.334c27.504-1.297,55.051-1.791,82.58-1.912C345.501,9.543,317.954,10.035,290.45,11.334z"/>
	<path fill="none" d="M106.913,33.446c24.094-6.041,48.781-10.13,73.354-13.196C155.694,23.314,131.008,27.404,106.913,33.446z"/>
	<path fill="none" d="M245.586,239.674c-31.415-1.719-63.689-2.555-95.256-6.361C181.898,237.12,214.17,237.957,245.586,239.674z"/>
	<path fill="none" d="M735.285,102.951c-1.573,5.838-4.27,12.087-8.317,18.768C731.016,115.038,733.712,108.789,735.285,102.951z"/>
	<path fill="none" d="M503.116,243.611c-31.65-1.348-63.379-0.26-95.049-1.184C439.737,243.355,471.466,242.268,503.116,243.611z"/>
	<path fill="none" d="M39.456,77.451c-2.472,11.751-0.215,24.626,5.438,35.178C39.242,102.077,36.984,89.202,39.456,77.451z"/>
	<path fill="none" d="M742.617,206.927c11.616-9.983,19.977-22.927,19.688-38.749v-0.001
		C762.591,184.001,754.231,196.944,742.617,206.927z"/>
	<path fill="none" d="M63.968,170.977c-2.19,34.953,29.525,52.633,59.443,58.252C93.496,223.609,61.781,205.93,63.968,170.977z"/>
	<path fill="#F3F3F3" d="M761.747,122.16c0,0,1.906-1.295,9.531-15.705c30.289-57.229-85.256-83-85.256-83
		C580.011-5.152,383.127,0.442,383.127,0.442C-5.593,5.475,1.144,62.721,0.024,91.887c-1.124,29.164,37.579,51.607,37.579,51.607
		c-4.489,3.365-10.655,22.436-8.973,35.896c1.683,13.463,14.021,42.627,85.259,56.09c32.945,6.23,157.426,14.986,284.948,14.645
		c0,0-56.958-0.424,172.759,0.014c229.715,0.434,227.172-76.934,227.172-76.934C801.009,142.35,761.747,122.16,761.747,122.16z
		 M762.306,168.177L762.306,168.177c0.288,15.823-8.072,28.767-19.688,38.75c-3.872,3.327-8.105,6.326-12.501,8.993
		c-1.173,0.711-2.356,1.398-3.548,2.063c-0.929,0.518-1.86,1.025-2.797,1.514c-2.879,1.504-5.786,2.87-8.669,4.1
		c-10.188,4.348-21.092,8.391-31.846,11.096c-18.576,4.674-38.166,4.463-57.182,5.352c-41.043,1.922-81.857,5.324-122.959,3.568
		c-31.65-1.344-63.379-0.256-95.049-1.184c-34.63-1.018-69.265-0.723-103.892-1.656c-18.881-0.506-37.828-0.217-56.688-0.967
		c-0.636-0.025-1.269-0.078-1.901-0.131c-31.416-1.717-63.688-2.554-95.256-6.361c-9.042-1.091-18.03-2.412-26.919-4.084
		c-29.917-5.619-61.633-23.299-59.443-58.252c0,0,1.121-17.945,10.097-26.924c0,0-20.759-15.717-29.172-31.424
		c-5.653-10.552-7.91-23.426-5.438-35.178c1.294-6.155,3.886-12.002,7.968-17.045C57.625,47.793,74.237,42.735,89.15,38.297
		c5.877-1.748,11.803-3.357,17.763-4.852c24.095-6.042,48.781-10.132,73.354-13.196c36.597-4.567,73.357-7.177,110.183-8.915
		c27.504-1.3,55.051-1.791,82.58-1.912c84.697-0.371,118.359,0.002,190.152,5.609c71.799,5.607,109.938,16.282,109.938,16.282
		s0.207,0.052,0.598,0.159c6.509,1.772,63.986,18.591,63.306,59.584c-0.009,0.563-0.029,1.132-0.062,1.705
		c-0.089,1.611-0.267,3.258-0.541,4.943c-0.148,0.912-0.324,1.835-0.529,2.77c-0.18,0.817-0.382,1.643-0.606,2.477
		c-1.573,5.838-4.27,12.087-8.317,18.768c0,0,0.85,0.381,2.284,1.142c7.749,4.106,32.582,19.282,33.054,45.31
		C762.306,168.172,762.306,168.174,762.306,168.177z"/>
	<path fill="#FFFFFF" d="M729.252,122.86c-1.435-0.761-2.284-1.142-2.284-1.142c4.048-6.681,6.744-12.93,8.317-18.768
		c0.225-0.834,0.427-1.66,0.606-2.477c0.205-0.934,0.381-1.857,0.529-2.77c0.274-1.685,0.452-3.332,0.541-4.943
		c0.032-0.573,0.053-1.141,0.062-1.705c0.681-40.993-56.797-57.812-63.306-59.584c-0.391-0.106-0.598-0.159-0.598-0.159
		s-38.139-10.675-109.938-16.282C491.39,9.424,457.728,9.051,373.03,9.422c-27.529,0.121-55.076,0.615-82.58,1.912
		c-36.825,1.738-73.586,4.348-110.183,8.915c-24.573,3.066-49.26,7.156-73.354,13.196c-5.96,1.495-11.886,3.104-17.763,4.852
		c-14.913,4.438-31.524,9.496-41.727,22.109c-4.082,5.043-6.673,10.89-7.968,17.045c-2.471,11.75-0.213,24.625,5.438,35.178
		c8.413,15.707,29.172,31.424,29.172,31.424c-8.976,8.979-10.097,26.924-10.097,26.924c-2.188,34.953,29.527,52.633,59.443,58.252
		c8.889,1.672,17.876,2.993,26.919,4.084c31.566,3.807,63.841,4.643,95.256,6.361c0.633,0.053,1.266,0.105,1.901,0.131
		c18.86,0.75,37.808,0.461,56.688,0.967c34.627,0.934,69.262,0.639,103.892,1.656c31.67,0.924,63.398-0.164,95.049,1.184
		c41.102,1.756,81.916-1.646,122.959-3.568c19.016-0.889,38.605-0.678,57.182-5.352c10.754-2.705,21.658-6.748,31.846-11.096
		c2.883-1.229,5.79-2.596,8.669-4.1c0.937-0.488,1.868-0.996,2.797-1.514c1.191-0.664,2.375-1.352,3.548-2.063
		c4.396-2.667,8.629-5.666,12.501-8.993c11.614-9.982,19.974-22.926,19.688-38.75c0-0.003,0-0.005,0-0.007
		C761.834,142.143,737.001,126.967,729.252,122.86z"/>
</g>
</svg>
