<?xml version="1.0" encoding="utf-8"?>
<!-- Generator: Adobe Illustrator 16.0.0, SVG Export Plug-In . SVG Version: 6.00 Build 0)  -->
<!DOCTYPE svg PUBLIC "-//W3C//DTD SVG 1.1//EN" "http://www.w3.org/Graphics/SVG/1.1/DTD/svg11.dtd">
<svg version="1.1" xmlns="http://www.w3.org/2000/svg" xmlns:xlink="http://www.w3.org/1999/xlink" x="0px" y="0px"
	 width="237.366px" height="74.323px" viewBox="0 0 237.366 74.323" enable-background="new 0 0 237.366 74.323"
	 xml:space="preserve">
<g id="reference" display="none">
</g>
<g id="Guides">
</g>
<g id="Shapes">
</g>
<g id="Object">
	<g id="Object_Comp">
	</g>
	<g>
		<path fill="#F2F2F2" d="M226.339,36.297c0,0,0.567-0.385,2.833-4.666c8.999-17.005-25.332-24.662-25.332-24.662
			c-31.5-8.5-90.001-6.838-90.001-6.838C-1.662,1.626,0.34,18.636,0.007,27.302c-0.334,8.666,11.166,15.334,11.166,15.334
			c-1.334,1-3.166,6.666-2.666,10.666s4.166,12.667,25.333,16.667c9.789,1.851,46.776,4.452,84.667,4.351
			c0,0-16.924-0.126,51.332,0.003s67.5-22.858,67.5-22.858C238.006,42.297,226.339,36.297,226.339,36.297z M212.48,66.437
			c-3.028,1.292-6.267,2.493-9.463,3.297c-5.52,1.388-11.34,1.326-16.99,1.59c-12.196,0.57-24.323,1.58-36.536,1.061
			c-9.404-0.4-18.832-0.077-28.242-0.353c-10.289-0.302-20.58-0.214-30.869-0.491c-5.609-0.151-11.239-0.065-16.844-0.288
			c-0.189-0.008-0.377-0.023-0.565-0.038c-12.008-0.657-24.44-0.873-36.302-3.104c-8.889-1.67-18.313-6.923-17.662-17.308
			c0,0,0.333-5.333,3-8c0,0-6.168-4.671-8.668-9.338c-2.559-4.777-2.776-11.157,0.752-15.517c3.031-3.748,7.968-5.251,12.398-6.569
			c8.806-2.619,17.966-4.227,27.074-5.363C64.437,4.659,75.36,3.884,86.302,3.367c8.172-0.386,16.357-0.532,24.537-0.568
			c25.167-0.11,35.168,0.001,56.501,1.667s32.666,4.838,32.666,4.838s28,7.059,16,26.862c0,0,10.333,4.637,10.5,13.804
			C226.651,57.984,219.331,63.514,212.48,66.437z"/>
		<path fill="#FFFFFF" d="M216.006,36.166c12-19.804-16-26.862-16-26.862s-11.333-3.172-32.666-4.838s-31.334-1.777-56.501-1.667
			c-8.18,0.036-16.365,0.183-24.537,0.568C75.36,3.884,64.437,4.659,53.563,6.016c-9.108,1.137-18.269,2.744-27.074,5.363
			c-4.431,1.318-9.367,2.821-12.398,6.569c-3.528,4.359-3.311,10.739-0.752,15.517c2.5,4.667,8.668,9.338,8.668,9.338
			c-2.667,2.667-3,8-3,8c-0.65,10.385,8.773,15.638,17.662,17.308c11.861,2.23,24.294,2.446,36.302,3.104
			c0.188,0.015,0.376,0.03,0.565,0.038c5.604,0.223,11.234,0.137,16.844,0.288c10.289,0.277,20.58,0.189,30.869,0.491
			c9.41,0.275,18.838-0.048,28.242,0.353c12.213,0.52,24.34-0.49,36.536-1.061c5.65-0.264,11.471-0.202,16.99-1.59
			c3.196-0.804,6.435-2.005,9.463-3.297c6.851-2.923,14.171-8.453,14.025-16.468C226.339,40.802,216.006,36.166,216.006,36.166z"/>
	</g>
</g>
</svg>
